<svg xmlns="http://www.w3.org/2000/svg" viewBox="0 0 512 512">
  <rect width="512" height="512" fill="#8b5cf6" rx="0" ry="0"/>
  <g transform="translate(128, 96)">
    <path fill="#ffffff" d="M128 0C92.7 0 64 28.7 64 64v192c0 35.3 28.7 64 64 64s64-28.7 64-64V64c0-35.3-28.7-64-64-64zM0 192c0-17.7 14.3-32 32-32s32 14.3 32 32v64c0 70.7 57.3 128 128 128s128-57.3 128-128v-64c0-17.7 14.3-32 32-32s32 14.3 32 32v64c0 89.1-66.2 162.7-152 174.4V480h48c17.7 0 32 14.3 32 32s-14.3 32-32 32H120c-17.7 0-32-14.3-32-32s14.3-32 32-32h48v-49.6C82.2 418.7 16 345.1 16 256v-64c0-17.7 14.3-32 32-32z"/>
  </g>
</svg>
